<svg xmlns="http://www.w3.org/2000/svg" version="1.1" xmlns:xlink="http://www.w3.org/1999/xlink" xmlns:svgjs="http://svgjs.com/svgjs" width="1290" height="1080" preserveAspectRatio="none" viewBox="0 0 1290 1080"><g mask="url(&quot;#SvgjsMask1082&quot;)" fill="none"><rect width="1290" height="1080" x="0" y="0" fill="rgba(19, 35, 46, 1)"></rect><path d="M1333 1080L0 1080 L0 683.08Q70.9 689.49, 64.5 760.39Q146.14 734.53, 172 816.17Q205.64 742.31, 279.5 775.95Q310.98 699.93, 387 731.41Q434.32 714.23, 451.5 761.56Q451.76 697.32, 516 697.58Q507.51 624.6, 580.5 616.11Q634.52 605.63, 645 659.66Q748.97 656.13, 752.5 760.1Q795.23 695.33, 860 738.05Q859.8 673.35, 924.5 673.14Q968.88 610.02, 1032 654.41Q1051.25 609.16, 1096.5 628.41Q1171.62 596.02, 1204 671.14Q1297.68 700.33, 1268.5 794.01Q1248.77 709.77, 1333 690.04z" fill="rgba(29, 97, 146, 1)"></path><path d="M1311.5 1080L0 1080 L0 891.88Q-14.34 813.04, 64.5 798.69Q111.67 738.36, 172 785.53Q275.68 781.71, 279.5 885.4Q307.84 806.24, 387 834.57Q405.15 788.23, 451.5 806.38Q492.22 782.6, 516 823.32Q523.71 766.53, 580.5 774.23Q644.52 730.75, 688 794.77Q767.75 810.02, 752.5 889.77Q749.28 822.05, 817 818.82Q829.75 767.07, 881.5 779.81Q940.59 731.39, 989 790.48Q1106.26 800.24, 1096.5 917.49Q1166.58 880.07, 1204 950.14Q1213.89 852.53, 1311.5 862.42z" fill="rgba(45, 105, 204, 1)"></path><path d="M1354.5 1080L0 1080 L0 929.28Q104.68 926.46, 107.5 1031.14Q176.97 993.12, 215 1062.59Q245.11 985.2, 322.5 1015.31Q368.43 996.74, 387 1042.66Q411.29 1002.45, 451.5 1026.73Q492.91 960.64, 559 1002.05Q577.43 955.98, 623.5 974.42Q646.41 932.83, 688 955.74Q735.17 938.41, 752.5 985.58Q872.87 998.45, 860 1118.82Q920.32 1071.64, 967.5 1131.96Q975.61 1075.57, 1032 1083.68Q1045.11 989.29, 1139.5 1002.39Q1186.81 942.2, 1247 989.51Q1281.96 916.98, 1354.5 951.94z" fill="rgba(59, 124, 205, 1)"></path></g><defs><mask id="SvgjsMask1082"><rect width="1290" height="1080" fill="#ffffff"></rect></mask></defs></svg>