<svg xmlns="http://www.w3.org/2000/svg" version="1.1" xmlns:xlink="http://www.w3.org/1999/xlink" xmlns:svgjs="http://svgjs.com/svgjs" width="1920" height="1080" preserveAspectRatio="none" viewBox="0 0 1920 1080"><g mask="url(&quot;#SvgjsMask1018&quot;)" fill="none"><rect width="1920" height="1080" x="0" y="0" fill="rgba(19, 35, 46, 1)"></rect><circle r="14.965" cx="1784.875" cy="266.815" filter="url(#SvgjsFilter1019)" fill="rgba(51, 121, 194, 0.58)"></circle><circle r="16.695" cx="340.485" cy="180.355" filter="url(#SvgjsFilter1019)" fill="rgba(51, 121, 194, 0.58)"></circle><circle r="12.985" cx="582.095" cy="506.935" filter="url(#SvgjsFilter1019)" fill="rgba(51, 121, 194, 0.58)"></circle><circle r="11.17" cx="1786.03" cy="705.67" filter="url(#SvgjsFilter1019)" fill="rgba(51, 121, 194, 0.58)"></circle><circle r="16.065" cx="164.265" cy="808.8050000000001" filter="url(#SvgjsFilter1019)" fill="rgba(51, 121, 194, 0.58)"></circle><circle r="16.84" cx="508.71" cy="517.95" filter="url(#SvgjsFilter1019)" fill="rgba(51, 121, 194, 0.58)"></circle><circle r="11.155" cx="1548.215" cy="85.735" filter="url(#SvgjsFilter1019)" fill="rgba(51, 121, 194, 0.58)"></circle><circle r="17.05" cx="1560.3899999999999" cy="502.07" filter="url(#SvgjsFilter1019)" fill="rgba(51, 121, 194, 0.58)"></circle><circle r="15.92" cx="474.62" cy="606.8199999999999" filter="url(#SvgjsFilter1019)" fill="rgba(51, 121, 194, 0.58)"></circle><circle r="14.18" cx="1212.05" cy="578.54" filter="url(#SvgjsFilter1019)" fill="rgba(51, 121, 194, 0.58)"></circle><circle r="15.375" cx="1499.925" cy="113.505" filter="url(#SvgjsFilter1019)" fill="rgba(51, 121, 194, 0.58)"></circle><circle r="15.57" cx="534.88" cy="1043.26" filter="url(#SvgjsFilter1019)" fill="rgba(51, 121, 194, 0.58)"></circle><circle r="13.3" cx="1914.86" cy="93.28" filter="url(#SvgjsFilter1019)" fill="rgba(51, 121, 194, 0.58)"></circle><circle r="15.665" cx="510.64500000000004" cy="136.525" filter="url(#SvgjsFilter1019)" fill="rgba(51, 121, 194, 0.58)"></circle><circle r="17.995" cx="694.445" cy="838.855" filter="url(#SvgjsFilter1019)" fill="rgba(51, 121, 194, 0.58)"></circle><circle r="15.61" cx="1283.4699999999998" cy="796.77" filter="url(#SvgjsFilter1019)" fill="rgba(51, 121, 194, 0.58)"></circle><circle r="10.955" cx="509.78499999999997" cy="253.28500000000003" filter="url(#SvgjsFilter1019)" fill="rgba(51, 121, 194, 0.58)"></circle><circle r="11.17" cx="1015.5799999999999" cy="708.1999999999999" filter="url(#SvgjsFilter1019)" fill="rgba(51, 121, 194, 0.58)"></circle><circle r="17.06" cx="314.72" cy="528.3399999999999" filter="url(#SvgjsFilter1019)" fill="rgba(51, 121, 194, 0.58)"></circle><circle r="12.03" cx="1627.25" cy="715.3199999999999" filter="url(#SvgjsFilter1019)" fill="rgba(51, 121, 194, 0.58)"></circle><path d="M447.2 903.4L475.4 913.3 462.2 925.6C460.7 926.8 460.4 929.4 461.8 931.8 463.8 933.1 466.5 933.4 467.8 931.4L484.8 916.6 507.1 923.4 471.6 954.2C470.2 956.2 469.9 958.9 471.1 960.4 473.3 962.5 476 962.8 477.3 960.8L516.5 926.7 550.2 938.1 516.6 961.5 556.7 969.9 530.1 993.6 480.7 977.6C480.5 976.7 479.7 976.9 478.9 977.1 477.2 977.4 475.7 978.6 475.2 980.4 474.7 982.3 476 984.6 478.1 985.9L522.8 1000.3 505 1015.3 483.5 1008.3C482.5 1007.7 481.7 1007.8 480.8 1008 480 1008.2 478.5 1009.4 478 1011.2 477.5 1013 478.9 1015.4 480.7 1015.9L497.6 1022 475.6 1042.2C473.3 1043.5 473.8 1046 475.2 1048.4 476.3 1049.9 479 1050.2 481.2 1048L503.4 1028.7 506.9 1046.2C507.5 1048.7 510.3 1049.9 512 1049.5 514.5 1049 515.8 1047 515.3 1044.5L510.7 1021.9 528.5 1007 537.8 1052.1C538.3 1054.6 540.3 1056 542.8 1055.4 544.5 1055.1 546.6 1052.9 546.1 1050.4L535.9 1000.2 562.4 976.5 566.2 1016.7 593.2 986.8 600.4 1021.9 562 1055.9C559.9 1058 560.4 1060.5 561.6 1062 562.7 1063.6 565.4 1063.9 567.8 1062.5L602.3 1031.1 606.9 1053.7 590.1 1069.3C587.7 1070.6 587.4 1073.3 589.6 1075.5 590.8 1077 593.4 1077.3 595.6 1075.1L608.9 1063.7 614.9 1092.9C615.4 1095.5 617.5 1096.8 620 1096.3S623.8 1093.7 623.3 1091.2L617.3 1062 634.1 1067.3C636.9 1068.4 639.2 1067.1 639.7 1065.2 640.9 1062.4 639.5 1060 636.9 1059.7L615.2 1051.9 610.6 1029.4 654.7 1044.7C657.4 1045.1 659.7 1043.7 660.2 1041.9 661.4 1039 660 1036.7 657.4 1036.4L608.7 1020.2 601.6 985.1 638.1 1002 625.9 963.5 659.6 974.9 669.9 1025.1C670.4 1027.6 673.2 1028.8 674.9 1028.4 677.4 1027.9 678.7 1025.9 678.2 1023.4L668.8 977.4 691.3 985 695.9 1007.6C696.4 1010.1 698.4 1011.4 700.9 1010.9 702.6 1010.6 704.8 1008.4 704.2 1005.9L700.7 988.3 728.6 997.4C731.5 998.5 733.8 997.2 734.2 994.5 734.6 992.7 734.1 990.2 731.5 989.8L703.3 979.9 716.5 967.7C718 966.5 718.3 963.8 717.1 962.3 715.9 960.8 714.1 960.3 713.3 960.5 712.4 960.6 711.6 960.8 710.9 961.8L693.9 976.6 671.6 969.9 707.1 939.1C708.5 937.1 708.8 934.4 707.6 932.9 706.4 931.4 704.6 930.9 702.9 931.2 702.1 931.4 702.1 931.4 701.4 932.4L662.2 966.6 628.5 955.2 662.1 931.7 622.1 923.4 648.6 899.7 698 915.7C699.8 916.2 702.3 915.7 703.5 912.8 704 911 702.7 908.6 700.6 907.3L655.9 892.9 673.7 878 695.2 884.9C697.2 886.2 699.5 884.9 700.7 882 701.2 880.2 699.8 877.9 697.8 876.5L681.1 871.2 703.1 851.1C705.4 849.7 704.9 847.2 703.5 844.9 702.5 844.2 700.7 843.7 699.9 843.9 699 844.1 698.2 844.2 697.5 845.2L675.3 864.6 671.8 847C671.2 844.5 668.4 843.4 666.7 843.7L666.7 843.7C664.2 844.2 662.9 846.2 663.4 848.7L668 871.3 650.2 886.3 640.9 841.1C640.4 838.6 638.4 837.3 635.9 837.8S632.1 840.3 632.6 842.8L642.8 893 616.3 916.7 612.5 876.6 585.5 906.5 578.3 871.4 616.7 837.4C618.8 835.2 618.3 832.7 617.1 831.2 616 829.7 613.3 829.4 610.9 830.7L576.3 861.3 571.8 839.6 588.6 824C591 822.6 591.3 819.9 589.1 817.8 587.9 816.3 585.3 815.9 582.9 817.3L569.8 829.6 563.8 800.3C563.3 797.8 561.2 796.5 558.7 797S554.9 799.5 555.4 802L561.4 831.3 544.6 826C543.6 825.3 542.8 825.5 542 825.7 540.3 826 539.6 827 539 828 537.8 830.9 539.2 833.2 541.8 833.5L563.5 841.3 568.1 863.9 524 848.5C523.2 848.7 522.3 848.8 521.5 849 519.8 849.4 519.1 850.4 518.5 851.4 517.3 854.2 518.7 856.6 521.3 856.9L570 873.1 577.1 908.2 540.6 891.3 552.8 929.7 519.1 918.3 508.8 868.1C508.3 865.6 505.5 864.5 503.8 864.8 501.3 865.3 500 867.4 500.5 869.9L509.7 915 487.4 908.2 482.8 885.7C482.3 883.2 480.3 881.8 477.8 882.3S473.9 884.9 474.5 887.4L478 904.9 450.1 895.9C449.1 895.2 448.2 895.4 447.4 895.5 446.5 895.7 445 896.9 444.5 898.7 444.1 900.6 444.6 903.1 447.2 903.4ZM554.2 906.8L584 920.7 606 896.2 609.4 929.5 641.2 936 614.7 955.4 624.5 986.5 594.7 972.5 572.7 997.1 569.5 964.6 537.5 957.2 564.2 938.7 554.2 906.8Z" fill="rgba(51, 121, 194, 0.58)"></path><path d="M253.6 272.8L259.6 298.9 242.2 294.3C240.4 293.6 238 294.8 236.7 297.1 236.7 299.6 237.8 302 239.6 302.6L262.4 309.2 267.8 333.5 221.7 319.7C218.7 319.1 216.3 320.2 216.2 322.6 214.9 325 216.1 327.4 219.1 328.1L270 343.2 275.6 365.1 237.9 401 218.7 395.7 206.1 340.5C205.5 339.9 204.9 339.2 204.4 338.6 203.8 338 202 337.4 200.8 337.3 197.7 337.9 196.5 340.3 197.6 342.7L209.1 393.1 185.7 385.9 179.1 360.4C179.7 359.8 179.1 359.2 178.5 358.5 177.4 357.3 175.6 356.7 173.7 357.2 171.9 357.8 170.6 360.2 170.6 362.6L176.1 383.2 146.8 374.7C145 374 142.5 375.2 141.3 377.6 141.2 380 142.4 382.4 144.2 383.1L171.7 391 158.8 403.3C156.9 405.1 157.4 408.1 158.6 409.4 160.4 411.2 163.4 411.9 165.2 410.1L181.9 394.2 205.3 401.4 170.7 434.4C168.9 436.2 168.8 438.6 170.6 440.4 172.3 442.3 174.7 442.3 176.6 440.6L214.9 404.1 235.3 409.4 247.4 460.4 233.2 473.9 181 458.8C178.6 457.5 175.6 459.3 175.5 461.7 174.2 464.1 176 465.9 178.4 467.2L225.7 481 207.8 498.1 184.5 490.9C182.7 490.2 179.6 492 179 493.8S180.1 498.6 182.4 499.9L200.4 505.1 178.8 525.7C177 527.5 177.5 530.5 179.3 532.4 180.4 533.6 183.4 534.3 185.3 532.5L206.9 511.9 211.9 530.7C212.5 532.6 214.2 534.4 217.3 533.9 219.1 533.3 221 530.4 220.4 528.5L214.3 504.8 232.2 487.8 243.8 535.7C244.9 538.2 246.7 540 249.7 539.5 251.5 538.9 253.4 535.9 252.9 534.1L239.6 480.7 253.8 467.1 304.2 481.6 308.5 502.2 270.3 538.8C268.4 540.5 268.3 542.9 270.1 544.8 271.9 546.6 274.9 547.3 276.7 545.5L311.3 512.6 317.4 536.2 300.7 552.1C298.9 553.9 298.8 556.3 300.6 558.2 302.3 560 304.8 560.1 306.6 558.3L319.6 546 326.2 573.9C326.7 575.7 329.7 577.6 331.5 577 334 575.9 335.8 574.1 334.7 571.7L328.1 542.5 347.9 548.4C350.3 548.5 352.7 547.3 353.4 545.5 354 543.7 353.5 541.9 352.3 540.7 352.3 540.7 351.7 540.1 350.5 540L325.3 532.2 319.3 508.5 369 522.4C371.4 523.6 373.8 522.5 374.5 519.5 374.5 518.3 374.6 517.1 373.4 515.8 372.8 515.2 372.2 514.6 371.6 514L317.1 498.8 312.7 479.4 350.4 443.5 371.9 450 384.6 501.6C385.1 504.6 387.5 505.9 390 504.8 392.4 504.8 393.6 502.4 393.1 499.4L381.5 452.7 405.5 459.3 411 482.3C411.6 484.1 414 485.4 416.4 485.5 418.8 484.3 420.7 482.5 419.5 480.1L415.7 462.5 441.5 469.8C443.9 471 445.7 469.3 447 466.9 447 465.7 446.4 463.8 445.3 462.6 445.3 462.6 444.7 462 444.1 461.4L416.5 453.5 432 438.8C433.2 437.6 433.9 434.6 432.1 432.7 430.3 430.9 427.3 431.4 426.1 432.6L406.9 450.8 382.9 444.2 420.6 408.3C422.4 406.5 421.9 403.5 420.2 401.7S416 399.7 414.1 401.5L372.7 441 353 435.1 340.9 384.1 356.9 368.8 409.7 384.5C412.1 384.6 414.5 383.4 415.8 381 415.8 379.8 415.3 378 414.1 376.8 413.5 376.2 412.9 375.5 411.7 375.5L364.4 361.7 382.3 344.6 406.2 351.2C408 351.9 410.5 350.7 411.7 348.3 411.8 345.9 410.7 343.5 408.9 342.8L389.7 337.6 409.4 318.7C410.7 317.5 410.8 313.9 409.6 312.7 407.8 310.8 404.2 310.7 403 311.9L383.2 330.8 379.4 312C378.8 311.4 378.2 310.7 377.6 310.1 376.5 308.9 374.7 308.2 373.5 308.2 371 309.4 369.8 311.7 369.7 314.2L375.8 337.8 357.9 354.9 346.3 307C345.8 303.9 343.4 302.7 341.6 303.2 338.6 303.8 337.3 306.2 337.2 308.6L350.5 362 334.4 377.3 284.1 362.8 279.1 342.8 320.5 303.3C322.3 301.6 322.4 299.2 320.6 297.3 318.8 295.5 316.4 295.4 314.6 297.2L276.9 333.1 271.4 308.8 290.6 290.6C291.8 289.4 291.9 285.8 290.1 283.9 288.4 282.1 285.3 282.6 284.1 283.8L268.7 298.5 262.1 270.6C261.5 270 261.5 270 260.9 269.3 259.7 268.1 257.9 267.5 256.7 267.4 254.3 268.6 253 271 253.6 272.8ZM327 384.4L332.4 386.3 333.5 391.2 343.4 432.4 344.5 437.3 340.8 440.8 310.5 469.7 306.8 473.2 302 471.9 261.2 460.1 256.4 458.8 254.8 453.3 245.5 412.6 243.8 407.2 247.5 403.6 277.7 374.8 281.4 371.2 286.8 373.2 327 384.4Z" fill="rgba(51, 121, 194, 0.58)"></path><path d="M1318.8 653.5L1318.5 683.4 1302.6 674.9C1301 673.8 1298.4 674.4 1296.6 676.4 1296 678.7 1296.5 681.4 1298.9 682L1318.4 693.3 1319.1 716.6 1278.6 692.9C1276.2 692.3 1273.6 692.9 1272.5 694.5 1271.2 697.2 1271.7 699.9 1274.1 700.5L1319 726.5 1319.1 762.1 1286.1 737.9 1291.1 778.5 1260.1 761.1 1259.4 709.1C1260.1 708.7 1259.7 707.9 1259.2 707.2 1258.4 705.7 1256.8 704.7 1254.9 704.8 1253 704.9 1251.2 707 1250.6 709.3L1251.4 756.3 1231.5 744.2 1231.1 721.7C1231.4 720.5 1231 719.8 1230.6 719.1 1230.1 718.3 1228.5 717.3 1226.6 717.4 1224.7 717.5 1223 719.6 1223.1 721.5L1222.8 739.5 1196.6 725.2C1194.5 723.4 1192.3 724.7 1190.5 726.7 1189.5 728.3 1190.1 730.9 1192.8 732.3L1218.3 747 1202.8 756.1C1200.6 757.4 1200.4 760.5 1201.3 761.9 1202.6 764.1 1204.9 764.8 1207.1 763.5L1227 751.8 1246.9 763.9 1207.2 787.2C1205 788.5 1204.4 790.8 1205.7 793 1206.5 794.5 1209.3 795.8 1211.5 794.5L1255.7 768.6 1286.7 786.1 1249.9 802.7 1286.9 818.6 1256 836.7 1211.5 811.4C1208.7 810 1206.5 811.3 1205.5 812.9 1204.4 814.5 1205 817.1 1207 818.9L1247.9 841.4 1228 853.1 1207.8 842.2C1205.8 840.4 1203.1 841 1201.8 843.7 1200.7 845.3 1201.3 848 1204.1 849.3L1219.2 858.3 1193.4 873.4C1191.2 874.7 1190.6 877 1191.9 879.2S1195.5 882 1197.8 880.7L1223.5 865.6 1223.9 883.2C1223.7 886.3 1225.8 888 1227.7 887.9 1230.8 888.1 1232.5 886.1 1232 883.4L1232.4 860.5 1252.2 848.8 1251.9 895.5C1252.5 898.1 1254.5 899.9 1256.4 899.8 1259.5 900 1261.2 897.9 1260.7 895.3L1260.3 844.1 1291.2 825.9 1287 866 1319.5 842 1319.6 877.6 1275.4 903.5C1273.2 904.8 1273 907.8 1273.9 909.3 1275.2 911.5 1277.5 912.1 1279.7 910.8L1320.2 887.1 1320.2 910.8 1300.4 922.5C1298.2 923.8 1297.5 926.1 1298.8 928.3 1299.7 929.8 1302.5 931.1 1304.7 929.8L1320.1 920.8 1320.6 950.2C1320.4 953.3 1322.4 955 1325.1 954.5 1327 954.4 1329.2 953.1 1328.6 950.4L1328.9 920.6 1344.8 929.1C1346.4 930.1 1349 929.5 1350.1 927.9 1351.1 926.4 1351 924.4 1350.5 923.7 1350.1 923 1349.7 922.2 1348.5 921.9L1329 910.6 1328.2 887.3 1368.8 911C1371.2 911.6 1373.8 911.1 1374.8 909.5 1375.9 907.9 1375.8 906 1374.9 904.5 1374.5 903.8 1374.5 903.8 1373.3 903.5L1328.3 877.4 1328.3 841.8 1361.2 866 1356.2 825.4 1387.2 842.9 1388 894.8C1388.1 896.7 1389.4 898.9 1392.5 899.1 1394.4 899 1396.2 897 1396.8 894.6L1396 847.6 1415.9 859.7 1416.2 882.2C1415.6 884.6 1417.7 886.3 1420.7 886.5 1422.6 886.4 1424.4 884.4 1425 882L1424.6 864.5 1450.8 878.8C1452.8 880.6 1455.1 879.3 1456.8 877.2 1457.1 876.1 1457 874.2 1456.6 873.4 1456.1 872.7 1455.7 871.9 1454.5 871.6L1429.1 856.9 1444.5 847.8C1446.8 846.5 1446.9 843.5 1446.1 842L1446.1 842C1444.8 839.8 1442.4 839.2 1440.2 840.5L1420.4 852.1 1400.4 840.1 1440.2 816.8C1442.4 815.5 1443 813.1 1441.7 810.9S1438.1 808.1 1435.9 809.4L1391.7 835.3 1360.7 817.9 1397.5 801.3 1360.4 785.4 1391.4 767.2 1435.9 792.6C1438.7 793.9 1440.9 792.6 1441.9 791 1442.9 789.4 1442.4 786.8 1440.4 785L1400.2 762.1 1419.3 750.8 1439.6 761.7C1441.6 763.5 1444.2 762.9 1445.6 760.2 1446.6 758.6 1446.1 755.9 1444 754.2L1428.2 745.7 1453.9 730.6C1456.1 729.3 1456.8 726.9 1455.5 724.7S1451.8 721.9 1449.6 723.2L1423.9 738.3 1423.5 720.7C1423.8 719.6 1423.3 718.8 1422.9 718.1 1422 716.6 1420.9 716.3 1419.7 716 1416.6 715.8 1414.8 717.9 1415.4 720.5L1415 743.5 1395.1 755.1 1395.5 708.4C1395 707.7 1394.6 707 1394.2 706.2 1393.3 704.8 1392.2 704.5 1391 704.2 1387.9 704 1386.1 706 1386.7 708.6L1387 759.9 1356.1 778 1360.3 737.9 1327.9 761.9 1327.8 726.3 1372 700.4C1374.2 699.2 1374.4 696.1 1373.5 694.6 1372.2 692.4 1369.9 691.8 1367.7 693.1L1327.9 716.4 1327.1 693.1 1347 681.5C1349.2 680.2 1349.8 677.8 1348.5 675.6S1344.9 672.8 1342.7 674.1L1327.2 683.2 1326.8 653.7C1327.1 652.6 1326.7 651.8 1326.2 651.1 1325.8 650.4 1324.2 649.3 1322.3 649.4 1320.4 649.6 1318.2 650.9 1318.8 653.5ZM1350.1 755.8L1346.5 788.6 1376.8 801.5 1346.4 815.4 1350.4 847.6 1323.6 828.7 1297.3 848.1 1300.9 815.3 1270.6 802.4 1300.3 789 1296.9 756.3 1323.1 775.6 1350.1 755.8Z" fill="rgba(51, 121, 194, 0.58)"></path><path d="M1025.3 608.4L1006.5 589.4 1023.7 584.1C1025.6 583.7 1027.1 581.5 1026.9 578.8 1025.7 576.7 1023.4 575.2 1021.5 575.6L998.7 582 981.3 564.3 1027.8 551.7C1030.7 550.7 1032.2 548.4 1030.9 546.3 1030.8 543.6 1028.5 542.2 1025.6 543.2L974.3 557.1 958.1 541.5 971.3 491.1 990.4 485.5 1030.1 525.8C1030.9 526.1 1031.8 526.3 1032.6 526.5 1033.4 526.7 1035.3 526.3 1036.3 525.7 1038.6 523.7 1038.4 521 1036.2 519.5L999.9 482.7 1023.6 476.5 1042.6 494.7C1042.4 495.5 1043.3 495.8 1044.1 496 1045.7 496.4 1047.6 496 1048.9 494.6 1050.1 493.1 1049.9 490.4 1048.7 488.4L1033.1 473.7 1062.6 465.5C1064.5 465.1 1065.9 462.9 1065.8 460.2 1064.5 458.1 1062.3 456.6 1060.4 457L1032.8 464.8 1037.3 447.5C1038 445 1035.9 442.7 1034.3 442.3 1031.8 441.6 1028.9 442.6 1028.2 445.1L1022.4 467.4 998.8 473.6 1010.8 427.3C1011.5 424.9 1010.3 422.8 1007.8 422.1 1005.3 421.5 1003.2 422.7 1002.6 425.2L989.2 476.4 969.1 482.6 932 445.6 937 426.6 989.3 412C992 411.8 993.6 408.7 992.4 406.7 992.2 404 989.8 403.3 987.1 403.5L939.5 416.7 945.8 392.7 969.4 386.6C971.3 386.2 973 383.1 972.6 381.2S969.1 377.6 966.4 377.8L948.4 382.8 955.9 353.9C956.6 351.4 954.5 349.1 952 348.5 950.4 348.1 947.5 349.1 946.8 351.5L939.3 380.4 925.1 367.1C923.7 365.8 921.2 365.2 918.9 367.2 917.7 368.6 917.6 372.2 919.1 373.4L936.7 390.4 930.5 414.3 895.4 379.6C893.2 378.1 890.7 377.5 888.4 379.5 887.1 381 887.1 384.5 888.5 385.7L927.9 424.2 922.9 443.2 872.5 457.4 857.9 442.1 871.3 390.9C871.9 388.5 870.7 386.4 868.2 385.7 865.8 385.1 862.9 386.1 862.2 388.6L850.1 434.8 832.5 417.9 838.3 395.6C839 393.1 837.8 391 835.3 390.4 832.8 389.7 830.7 390.9 830.1 393.4L825.6 410.8 805.3 390.5C803.8 389.2 800.3 389.2 799.1 390.6 797.6 392.9 796.9 395.4 799.2 396.8L820.1 418.1 800.2 423.5C798.1 424.8 796.6 427 797 428.9 797.4 430.7 798.8 432 800.5 432.4 800.5 432.4 801.3 432.7 802.4 432L827.9 425.5 845.5 442.4 795.9 456.8C793.2 457 791.7 459.3 792.7 462.2 793.4 463.2 794 464.2 795.6 464.7 796.4 464.9 797.3 465.1 798.1 465.3L852.5 449.5 866.4 463.7 853.3 514.1 831.5 519.9 793.6 482.7C791.5 480.4 788.8 480.5 787.4 482.8 785.3 484 785.5 486.7 787.5 489L821.9 522.7 798.1 529.7 781.3 513C779.8 511.7 777.1 511.9 775 513.1 773.6 515.4 772.9 517.8 775.2 519.3L787.7 532.3 761.9 539.7C759.3 539.8 758.6 542.3 758.8 545 759.4 546.1 760.8 547.3 762.5 547.7 762.5 547.7 763.3 548 764.1 548.2L791.7 540.4 786.4 561C785.9 562.7 786.9 565.6 789.4 566.2 791.9 566.9 794.2 564.8 794.6 563.2L801.3 537.6 825.2 530.6 812 581C811.4 583.4 813.4 585.7 815.9 586.4S820.5 585.8 821.1 583.3L835.5 528 855.5 522.6 892.5 559.6 886.9 581.1 833.8 595.5C831.7 596.7 830.3 598.9 830.4 601.6 831.1 602.7 832.5 603.9 834.1 604.4 835 604.6 835.8 604.8 836.8 604.2L884.4 591 878.1 614.9 854.2 622C852.4 622.3 850.9 624.6 851.1 627.3 852.3 629.4 854.6 630.9 856.4 630.5L875.5 624.9 868.6 651.3C868.2 652.9 870 656.1 871.7 656.5 874.2 657.1 877.3 655.3 877.7 653.6L884.6 627.2 897.7 641.2C898.5 641.4 899.4 641.7 900.2 641.9 901.8 642.3 903.7 641.9 904.8 641.3 906.2 639 906 636.3 904.8 634.3L887.2 617.3 893.4 593.4 928.5 628.1C930.5 630.4 933.2 630.2 934.5 628.8 936.8 626.7 936.6 624 935.4 621.9L896 583.5 901.6 562 952.1 547.8 966.8 562.2 952.4 617.6C951.7 620 953 622.1 955.4 622.8 957.9 623.4 960 622.2 960.7 619.7L973.8 569.4 991.2 587.1 984.5 612.7C984.1 614.4 985.9 617.5 988.4 618.1 990.9 618.8 993.2 616.7 993.6 615.1L999 594.4 1019.3 614.7C1020.1 614.9 1020.1 614.9 1020.9 615.2 1022.6 615.6 1024.4 615.2 1025.5 614.6 1027 612.3 1026.8 609.6 1025.3 608.4ZM904.2 552.1L898.6 553.3 895.1 549.7 865 519.8 861.5 516.3 862.8 511.3 873.4 470.8 874.7 465.9 879.4 464.5 920.3 453.1 925.1 451.7 929.4 455.5 958.7 485.2 963 488.9 961.7 493.9 951.2 534.4 949.9 539.3 944.3 540.5 904.2 552.1Z" fill="rgba(51, 121, 194, 0.58)"></path><path d="M1640.6 643L1606.3 651.5 1579.4 635.1 1607.1 620 1641 630.3C1641 630.3 1641.4 630.3 1641.4 630.3 1642.2 630.3 1643.1 629.5 1643.6 628.6 1644 627.3 1643.2 626 1641.9 626L1612.3 617.1 1625.7 609.8 1638.8 613.5C1638.8 613.5 1639.3 613.6 1639.3 613.6 1640.1 613.6 1641 612.8 1641.4 611.9 1641.9 610.6 1641.1 609.3 1639.8 609.3L1630.9 606.5 1640.9 601.2C1641.7 600.8 1642.2 599.1 1641.8 598.3 1641.4 597 1639.7 596.9 1638.8 597.3L1628.9 602.6 1631.7 593.7C1632.1 592.5 1631.3 591.2 1630 591.1 1628.8 590.7 1627.5 591.5 1627.4 592.8L1623.7 605.9 1610.3 612.8 1619.1 583.2C1619.6 581.9 1618.8 580.6 1617.5 580.6 1616.2 580.1 1614.9 580.9 1614.9 582.2L1604.6 616.1 1576.9 631.1 1577.7 599.2 1603.6 574.6C1604.4 573.8 1604.5 572.5 1603.6 571.7 1602.8 570.8 1601.5 570.8 1600.7 571.6L1577.9 593.2 1578.3 577.8 1587.9 568.7C1588.8 567.9 1588.8 566.6 1588 565.7 1587.2 564.8 1585.9 564.8 1585 565.6L1578.5 571.9 1578.8 559.9C1579.2 558.6 1578 557.8 1576.7 557.7 1575.4 557.7 1574.5 558.5 1574.5 559.8L1574.2 570.9 1568 564.3C1567.1 563.5 1565.9 563.4 1565 564.3S1564.1 566.4 1564.9 567.2L1574.1 576.9 1573.7 592.2 1552.1 569.5C1551.2 568.6 1549.9 568.6 1549.1 569.4 1548.2 570.2 1548.2 571.5 1549 572.4L1573.5 598.2 1572.7 629.8 1545.8 613.3 1537.7 579.8C1537.3 578.5 1536 578 1534.8 578 1533.5 578.4 1533 579.6 1533 580.9L1540.3 611 1527.3 603 1524.2 589.7C1523.8 588.4 1522.6 587.9 1521.3 587.9 1520 588.3 1519.5 589.5 1519.5 590.4L1521.8 599.4 1512.2 593.6C1511.3 593.2 1509.6 593.1 1509.2 594.4 1508.7 595.7 1508.7 596.9 1509.9 597.4L1519.6 603.2 1510.6 605.5C1509.3 605.9 1508.8 607.2 1508.8 608 1509.2 608.9 1510 609.8 1510.9 609.8 1510.9 609.8 1511.3 609.8 1511.3 609.8L1524.6 606.7 1537.6 614.8 1507.6 622.1C1506.3 622.5 1505.8 623.7 1505.8 624.6 1506.2 625.5 1507 626.3 1507.9 626.4 1507.9 626.4 1508.3 626.4 1508.3 626.4L1542.7 617.9 1569.6 634.4 1541.9 649.4 1508 639.2C1506.7 638.7 1505.4 639.5 1505.4 640.8 1504.9 642.1 1505.7 643.4 1507 643.4L1536.7 652.3 1523.2 659.6 1510.1 655.9C1508.8 655.4 1507.5 656.2 1507.5 657.5 1507.1 658.8 1507.9 660.1 1509.1 660.1L1518 662.9 1508.1 668.2C1507.2 668.6 1506.8 670.3 1507.2 671.2 1507.6 672 1508.4 672.5 1509.3 672.5 1509.7 672.5 1510.1 672.5 1510.5 672.1L1520.5 666.8 1517.7 675.7C1517.2 677 1518.1 678.3 1519.3 678.3 1519.3 678.3 1519.8 678.3 1519.8 678.3 1520.6 678.3 1521.5 677.5 1522 676.7L1525.7 663.5 1539.1 656.2 1530.2 685.8C1529.8 687.1 1530.6 688.4 1531.9 688.4 1531.9 688.4 1532.3 688.5 1532.3 688.5 1533.2 688.5 1534 687.7 1534.5 686.8L1544.8 652.9 1572.5 637.9 1571.6 669.4 1545.8 693.9C1545 694.8 1544.9 696 1545.8 696.9 1546.6 697.8 1547.9 697.8 1548.7 697L1571.5 675.8 1571.1 691.2 1561.5 700.3C1560.6 701.1 1560.5 702.4 1561.4 703.3S1563.5 704.2 1564.4 703.4L1570.9 697.1 1570.6 708.2C1570.6 709.5 1571.4 710.4 1572.7 710.4 1574 710.5 1574.9 709.6 1574.9 708.3L1575.2 697.3 1581.4 703.8C1581.8 704.3 1582.3 704.7 1583.1 704.7S1584.4 704.3 1584.8 703.9C1585.7 703.1 1585.7 701.8 1584.9 700.9L1575.8 691.3 1576.2 675.9 1597.8 698.7C1598.2 699.1 1598.6 699.6 1599.5 699.6 1599.9 699.6 1600.8 699.2 1601.2 698.8 1602.1 698 1602.1 696.7 1601.3 695.8L1576.8 670 1577.6 638.4 1604.5 654.9 1613 689.3C1613.4 690.1 1614.2 691 1615 691 1615 691 1615.5 691 1615.5 691 1616.8 690.7 1617.2 689.4 1617.2 688.5L1609.9 658.5 1622.9 666.5 1626 679.8C1626.4 680.7 1627.2 681.5 1628.1 681.6 1628.1 681.6 1628.5 681.6 1628.5 681.6 1629.8 681.2 1630.3 679.9 1630.3 679.1L1628 670 1637.6 675.8C1638.1 675.8 1638.5 676.3 1638.9 676.3 1639.8 676.3 1640.6 675.9 1641.1 675.1 1641.5 673.8 1641.6 672.5 1640.3 672.1L1630.6 666.3 1639.7 663.9C1640.9 663.5 1641.4 662.3 1641.4 661.4 1641 660.1 1639.8 659.7 1638.9 659.6L1625.6 662.7 1612.6 654.7 1642.6 647.4C1643.9 647 1644.4 645.7 1644.4 644.9 1643.2 643.5 1641.9 642.7 1640.6 643Z" fill="rgba(51, 121, 194, 0.58)"></path><path d="M474.3 465.6L505.3 482.6 514 512.9 483.4 505.3 465.4 474.8C465.4 474.8 465.1 474.5 465.1 474.5 464.4 473.9 463.2 473.9 462.3 474.2 461.1 474.9 460.9 476.4 461.8 477.3L477.6 503.9 462.8 500.2 455.6 488.5C455.6 488.5 455.3 488.2 455.3 488.2 454.7 487.6 453.5 487.7 452.6 488 451.4 488.6 451.1 490.1 452.1 491L456.7 499.1 445.8 496.2C444.9 496 443.4 496.9 443.1 497.8 442.5 499 443.8 500.2 444.7 500.5L455.6 503.3 447.5 508C446.3 508.6 446 510.1 447 511 447.6 512.2 449.1 512.5 450 511.6L461.6 504.4 476.2 508.4 449.6 524.2C448.4 524.9 448.1 526.4 449 527.3 449.7 528.5 451.2 528.7 452.1 527.8L482.5 509.8 513.2 517.4 490.9 540.4 455.3 541C454.1 541.1 453.2 542 453.2 543.2 453.3 544.4 454.2 545.3 455.4 545.3L486.8 544.7 476.1 555.8 462.8 556C461.6 556 460.7 556.9 460.7 558.2 460.8 559.4 461.7 560.2 462.9 560.2L471.9 560.1 463.6 568.7C462.4 569.3 462.8 570.8 463.7 571.7 464.6 572.6 465.8 572.5 466.7 571.6L474.4 563.7 474.6 572.7C474.6 573.9 475.5 574.8 476.7 574.8S478.8 573.8 478.8 572.6L478.6 559.4 489.2 548.3 489.8 579.7C489.8 580.9 490.7 581.8 491.9 581.8 493.1 581.7 494 580.8 494 579.6L493.4 544 515.3 521.3 524 551.6 507.3 581.8C506.7 583 507.3 584.2 508.3 585.1 509.5 585.7 510.7 585.1 511.6 584.1L526.5 557 530.7 571.8 523.9 583.6C523.3 584.9 524 586 524.9 586.9 526.1 587.5 527.3 586.9 527.9 586.3L532.3 578.1 535.5 588.9C535.8 589.8 537 591 538.2 590.3 539.4 589.7 540.3 588.8 539.7 587.6L536.5 576.8 544.7 581.2C545.9 581.8 547.1 581.1 547.7 580.5 548 579.6 548 578.4 547.4 577.8 547.4 577.8 547.1 577.5 547.1 577.5L535.2 570.8 531 556.1 558.1 571C559.3 571.6 560.5 570.9 561.1 570.3 561.4 569.4 561.4 568.2 560.8 567.6 560.8 567.6 560.5 567.3 560.5 567.3L529.4 550.3 520.7 520 551.3 527.6 569.4 558.1C570 559.3 571.5 559.6 572.4 558.7 573.6 558.1 573.9 556.5 572.9 555.6L557.1 529.1 571.9 532.7 579.1 544.4C579.7 545.6 581.2 545.9 582.1 544.9 583.3 544.3 583.6 542.8 582.7 541.9L578 533.8 588.9 536.7C589.8 537 591.3 536 591.6 535.1 591.9 534.2 591.6 533.3 591 532.7 590.7 532.4 590.3 532.1 589.7 532.1L578.8 529.3 586.9 524.6C588.1 524 588.4 522.5 587.5 521.6 587.5 521.6 587.1 521.3 587.1 521.3 586.5 520.7 585.3 520.7 584.4 521.1L572.8 528.2 557.9 524.5 584.5 508.7C585.7 508.1 586 506.5 585.1 505.7 585.1 505.7 584.8 505.4 584.8 505.4 584.1 504.8 582.9 504.8 582 505.1L551.6 523.1 521 515.5 542.9 492.8 578.5 492.2C579.7 492.2 580.6 491.2 580.6 490 580.6 488.8 579.6 487.9 578.4 488L547.4 488.2 558 477.1 571.3 476.9C572.5 476.9 573.4 476 573.4 474.8S572.4 472.7 571.2 472.7L562.2 472.9 569.9 464.9C570.8 464 570.8 462.7 569.8 461.9 568.9 461 567.7 461 566.8 461.9L559.1 469.9 559 460.8C559 460.2 558.9 459.6 558.3 459S557.1 458.5 556.5 458.5C555.3 458.5 554.4 459.4 554.4 460.6L554.7 473.9 544 484.9 543.5 453.6C543.4 453 543.4 452.3 542.8 451.8 542.5 451.5 541.6 451.2 541 451.2 539.8 451.2 538.9 452.1 538.9 453.3L539.5 488.9 517.6 511.6 508.9 481.3 525.9 450.2C526.2 449.3 526.2 448.1 525.5 447.5 525.5 447.5 525.2 447.2 525.2 447.2 524 446.6 522.8 447.3 522.2 447.9L507.3 475 503.1 460.3 509.9 448.4C510.2 447.5 510.1 446.3 509.5 445.7 509.5 445.7 509.2 445.4 509.2 445.4 508 444.8 506.8 445.4 506.2 446L501.8 454.3 498.6 443.5C498.3 443.2 498.3 442.6 498 442.3 497.4 441.7 496.5 441.4 495.6 441.7 494.4 442.3 493.5 443.2 494.1 444.4L497.3 455.2 489.1 450.9C487.9 450.3 486.7 450.9 486.1 451.5 485.5 452.7 486.1 453.9 486.7 454.5L498.6 461.3 502.8 476 475.7 461C474.5 460.5 473.3 461.1 472.7 461.7 472.7 463.5 473 465 474.3 465.6Z" fill="rgba(51, 121, 194, 0.58)"></path><path d="M1878.1 564.7L1867.2 552 1878.1 549.5C1879.3 549.4 1880.3 548 1880.3 546.3 1879.7 545 1878.3 544 1877.1 544.1L1862.6 547.1 1852.5 535.3 1882.1 529.5C1883.9 529 1885 527.6 1884.3 526.3 1884.3 524.6 1882.9 523.6 1881.1 524.1L1848.5 530.5 1839.1 520.1 1849.5 489.2 1861.7 486.6 1884.7 513.5C1885.2 513.6 1885.7 513.8 1886.2 514 1886.7 514.1 1887.9 514 1888.5 513.7 1890.1 512.5 1890.1 510.8 1888.7 509.8L1867.7 485.2 1882.7 482.4 1893.8 494.6C1893.7 495.1 1894.2 495.3 1894.7 495.5 1895.7 495.8 1896.9 495.6 1897.7 494.8 1898.6 494 1898.6 492.3 1897.9 490.9L1888.8 481.1 1907.6 477.3C1908.7 477.1 1909.8 475.8 1909.8 474.1 1909.1 472.7 1907.7 471.7 1906.6 471.9L1889 475.5 1892.6 464.9C1893.1 463.4 1891.9 461.9 1890.9 461.5 1889.4 461 1887.5 461.5 1887 463L1882.4 476.7 1867.4 479.5 1877 451.2C1877.5 449.7 1876.8 448.3 1875.3 447.8 1873.8 447.3 1872.4 448 1871.9 449.5L1861.3 480.8 1848.5 483.8 1827 459.1 1830.9 447.5 1864.2 440.7C1865.9 440.7 1867 438.9 1866.4 437.5 1866.4 435.8 1864.9 435.3 1863.2 435.3L1833 441.4 1837.9 426.8 1852.9 424C1854.1 423.8 1855.3 422 1855.1 420.8S1853.1 418.4 1851.4 418.4L1840 420.7 1845.9 403C1846.4 401.5 1845.3 400 1843.7 399.5 1842.7 399.1 1840.9 399.6 1840.4 401.2L1834.4 418.8 1826.2 409.9C1825.3 409 1823.8 408.5 1822.3 409.7 1821.4 410.5 1821.3 412.7 1822.1 413.6L1832.3 424.9 1827.4 439.6 1807.1 416.4C1805.7 415.4 1804.2 414.9 1802.7 416 1801.8 416.9 1801.7 419.1 1802.5 419.9L1825.4 445.6 1821.4 457.3 1789.4 463.9 1781 453.7 1791.5 422.4C1792.1 420.9 1791.4 419.5 1789.9 419 1788.3 418.5 1786.5 419 1786 420.5L1776.4 448.8 1766.2 437.5 1770.8 423.9C1771.3 422.3 1770.6 421 1769.1 420.5 1767.6 420 1766.2 420.6 1765.7 422.2L1762.2 432.8 1750.4 419.2C1749.6 418.4 1747.4 418.2 1746.5 419.1 1745.5 420.4 1745 421.9 1746.3 422.9L1758.4 437.1 1745.8 439.6C1744.4 440.3 1743.4 441.6 1743.6 442.8 1743.7 444 1744.6 444.9 1745.6 445.2 1745.6 445.2 1746.1 445.4 1746.8 445L1763 442 1773.2 453.4 1741.7 460.2C1740 460.2 1739 461.5 1739.5 463.4 1739.8 464.1 1740.1 464.7 1741.1 465.1 1741.6 465.3 1742.1 465.4 1742.7 465.6L1777.3 458.1 1785.3 467.6 1774.9 498.4 1761.1 501.1 1739.1 476.2C1737.9 474.7 1736.2 474.7 1735.2 476 1733.8 476.7 1733.8 478.4 1735 479.9L1755 502.4 1739.8 505.7 1730.1 494.6C1729.2 493.7 1727.5 493.7 1726.2 494.4 1725.2 495.7 1724.7 497.2 1726 498.3L1733.2 506.9 1716.9 510.4C1715.2 510.4 1714.7 511.9 1714.7 513.6 1715 514.2 1715.8 515.1 1716.8 515.4 1716.8 515.4 1717.4 515.6 1717.9 515.8L1735.4 512.1 1731.2 524.8C1730.8 525.8 1731.3 527.6 1732.8 528.1 1734.3 528.6 1735.9 527.5 1736.2 526.5L1741.5 510.8 1756.7 507.5 1746.3 538.3C1745.8 539.8 1746.9 541.3 1748.5 541.8S1751.3 541.7 1751.8 540.2L1763.3 506.3 1775.9 503.8 1797.4 528.5 1793 541.7 1759.2 548.3C1757.9 549 1756.9 550.3 1756.9 552 1757.2 552.7 1758 553.5 1759 553.9 1759.6 554 1760.1 554.2 1760.7 553.9L1790.9 547.7 1786 562.4 1770.8 565.7C1769.6 565.9 1768.6 567.2 1768.6 568.9 1769.3 570.2 1770.6 571.3 1771.8 571.1L1784 568.4 1778.5 584.6C1778.2 585.6 1779.2 587.7 1780.2 588 1781.7 588.5 1783.7 587.5 1784.1 586.5L1789.5 570.3 1797.1 579.6C1797.6 579.8 1798.1 580 1798.6 580.1 1799.6 580.5 1800.8 580.3 1801.5 580 1802.5 578.6 1802.5 576.9 1801.8 575.6L1791.6 564.3 1796.5 549.6 1816.8 572.8C1818 574.3 1819.7 574.3 1820.5 573.5 1822.1 572.3 1822.1 570.6 1821.4 569.2L1798.5 543.5 1803 530.4 1835 523.8 1843.6 533.4 1832.2 567.3C1831.7 568.8 1832.4 570.1 1833.9 570.6 1835.4 571.1 1836.7 570.5 1837.3 569L1847.6 538.1 1857.7 550 1852.4 565.6C1852.1 566.7 1853.1 568.7 1854.6 569.2 1856.1 569.7 1857.7 568.5 1858 567.5L1862.3 554.9 1874 568.4C1874.5 568.6 1874.5 568.6 1875 568.8 1876 569.1 1877.2 568.9 1877.9 568.6 1878.9 567.2 1878.9 565.6 1878.1 564.7ZM1805 524.3L1801.5 524.8 1799.5 522.5 1782 502.5 1780 500.1 1781 497.1 1789.3 472.3 1790.4 469.3 1793.4 468.6 1819.4 463.3 1822.4 462.7 1825 465.2 1841.9 485 1844.4 487.5 1843.4 490.6 1835.1 515.3 1834.1 518.4 1830.5 518.8 1805 524.3Z" fill="rgba(51, 121, 194, 0.58)"></path><path d="M1783.2 1005.9L1801.8 947 1816.7 938.7 1848.9 959 1848.5 976.4 1802.8 1018.2C1802.4 1018.9 1802.4 1018.9 1802 1019.5 1801.2 1020.8 1801.1 1022.4 1802.6 1024.3 1804.5 1025.4 1806.1 1025.6 1807.9 1024.1L1847.8 987.4 1846.8 1014.2 1829.5 1030.6C1829.5 1030.6 1829.1 1031.2 1829.1 1031.2 1828.3 1032.5 1828.1 1034.1 1829.6 1036 1830.5 1037.4 1833.2 1037.3 1835 1035.8L1846.7 1025.6 1845.8 1045.3C1845.6 1046.9 1847.1 1048.8 1849.4 1049.3S1853.3 1047.3 1853.9 1045.1L1854.4 1026 1865.1 1037.1C1866.6 1038.9 1869.2 1038.8 1871.1 1037.3 1871.9 1036.1 1872.4 1033.8 1870.9 1032L1854.5 1014.6 1855.9 987.2 1892.5 1027C1894 1028.9 1896.7 1028.8 1898.2 1027.9 1899.4 1026 1899.9 1023.7 1898.4 1021.9L1856.2 976.8 1857 958.8 1889.9 941.6 1905 951.1 1919.3 1011.2C1919.7 1013.3 1921.6 1014.5 1923.7 1014S1926.9 1011.6 1926.5 1009.6L1913.9 956.7 1937.3 971.4 1942.4 994C1942.9 996.1 1944.8 997.3 1947.5 997.2S1950.7 994.8 1950.3 992.8L1946.1 976.9 1963.2 987.7C1965.1 988.9 1967.5 987.8 1968.7 985.9 1969.9 984 1969.4 981.9 1967.6 980.7L1950.5 970 1965.9 966.5C1968.6 966.4 1969.8 964.5 1968.7 962 1968.2 960 1966.4 958.8 1964.3 959.3L1941.6 964.4 1918.3 949.7 1971.4 938.1C1973.5 937.7 1975 935.2 1974.6 933.1S1972.2 929.8 1970.2 930.3L1909.4 944.1 1894.2 934.6 1895.9 896.9 1911.5 889 1970.4 907.5C1972.7 908.1 1974.5 906.6 1975.7 904.7 1976.2 902.4 1974.7 900.6 1972.9 899.4L1921.1 883.6 1944.8 871.1 1967.5 878.4C1969.8 878.9 1971.6 877.4 1972.8 875.5 1973 873.9 1971.9 871.4 1969.6 870.9L1955 866.1 1972.3 856.7C1973.8 855.8 1974.3 853.5 1973.9 851.5 1972.4 849.7 1970.1 849.1 1968.6 850L1951.3 859.3 1955.8 843.7C1956 842 1954.9 839.6 1953.2 839.4 1951.3 838.2 1949.9 839.1 1948.7 841 1948.7 841 1948.3 841.6 1948.3 841.6L1941.1 864.4 1917.4 876.8 1933.2 825C1933.7 822.7 1933.3 820.7 1931 820.1 1928.7 819.5 1927.3 820.4 1926.5 821.7 1926.1 822.3 1926.1 822.3 1926.1 822.3L1907.8 882.2 1892.2 890.1 1860 869.8 1861 852.8 1906.5 810C1907.9 809.1 1907.8 806.4 1907 805 1905.5 803.2 1902.8 803.2 1900.9 804.7L1861.1 841.4 1862.1 814.7 1879.4 798.3C1881.3 796.8 1881.8 794.5 1879.9 793.3 1878.4 791.5 1875.7 791.5 1874.3 792.4L1862.8 803.7 1863.7 784C1863.3 781.9 1861.8 780.1 1859.5 779.5 1858.4 779.8 1857 780.6 1856.2 781.9 1855.8 782.5 1855.8 782.5 1856 783.6L1855.1 803.3 1843.8 791.8C1842.3 789.9 1840.3 790.4 1838.9 791.3 1838.5 791.9 1838.5 791.9 1838.1 792.5 1837.3 793.8 1837.1 795.5 1838 796.9L1854.4 814.3 1853.4 841 1816.7 801.2C1814.8 800 1812.6 799.4 1811.4 801.3 1810.3 801.6 1810.3 801.6 1809.9 802.2 1809.1 803.5 1809.6 805.5 1810.5 806.9L1853.3 852.4 1852.3 869.4 1819 887.3 1804.5 878.2 1790.7 817.4C1790.2 815.3 1787.7 813.8 1785.6 814.2S1781.9 817.2 1782.4 819.3L1795 872.2 1772.3 857.9 1766.5 834.8C1766 832.8 1764.1 831.6 1762 832 1760 832.5 1758.8 834.4 1759.3 836.5L1762.8 851.9 1745.7 841.2C1744.4 840.4 1741.8 840.5 1740.6 842.4 1739.4 844.2 1740.1 847.3 1741.3 848.1L1758.4 858.9 1743 862.4C1741.9 862.6 1740.9 862.9 1740.5 863.5 1739.7 864.7 1739.9 865.8 1740.2 866.8 1740.6 868.9 1742.5 870.1 1744.6 869.6L1767.9 864.8 1790.6 879.1 1737.5 890.7C1736.5 890.9 1736.1 891.6 1735.3 892.8 1734.9 893.5 1734.5 894.1 1734.7 895.1 1735.2 897.2 1737.7 898.8 1739.8 898.3L1800.1 885.1 1814.7 894.2 1813.4 931.4 1798.1 940.3 1738.5 921.3C1736.9 921.2 1734.8 921.6 1734 922.9 1733.6 923.5 1733.6 923.5 1734.2 923.9 1733 925.8 1734.1 928.3 1736.4 928.8L1788.2 944.7 1764.1 957.7 1741.4 950.5C1739.7 950.3 1738.3 951.2 1737.5 952.4 1737.5 952.4 1737.1 953.1 1737.1 953.1 1735.9 955 1737 957.4 1739.3 958L1754.9 962.5 1737.6 971.9C1736.5 972.1 1736.2 972.8 1735.8 973.4 1735 974.7 1734.8 976.3 1735.4 976.7 1736.5 979.2 1738.8 979.7 1740.9 979.3L1758.2 969.9 1753.5 984.5C1752.9 986.8 1754 989.3 1756.3 989.8 1757.9 990 1760.4 988.9 1760.6 987.2L1767.8 964.5 1791.5 952 1775.7 1003.8C1775.2 1006.1 1776.7 1008 1778.5 1009.1 1780.2 1009.3 1782.7 1008.2 1783.2 1005.9ZM1849.5 949.7L1824.8 934.2 1821 931.8 1821.1 927.4 1822.2 899 1822.7 894 1826.6 892.1 1851.7 878.8 1855.6 876.8 1859.4 879.2 1884.1 894.7 1887.9 897.1 1887.8 901.4 1886.7 929.8 1886.6 934.2 1882.3 936.8 1857.2 950.1 1853.3 952.1 1849.5 949.7Z" fill="rgba(51, 121, 194, 0.58)"></path><path d="M1197.9 348.8L1165.6 334.5 1154.4 305 1185.5 310.1 1206 338.9C1206 338.9 1206.4 339.2 1206.4 339.2 1207 339.7 1208.2 339.6 1209.1 339.2 1210.2 338.5 1210.4 337 1209.4 336.2L1191.4 311 1206.5 313.4 1214.6 324.4C1214.6 324.4 1214.9 324.7 1214.9 324.7 1215.6 325.2 1216.8 325.1 1217.6 324.7 1218.8 324 1218.9 322.5 1217.9 321.7L1212.6 314 1223.7 315.9C1224.6 316.1 1226.1 315.1 1226.3 314.1 1226.7 312.9 1225.4 311.8 1224.5 311.6L1213.4 309.7 1221 304.4C1222.2 303.6 1222.3 302.1 1221.3 301.3 1220.6 300.2 1219.1 300 1218.3 301L1207.3 309.1 1192.4 306.3 1217.6 288.3C1218.7 287.6 1218.9 286.1 1217.9 285.3 1217.2 284.1 1215.6 284 1214.8 285L1186 305.5 1154.8 300.4 1175.1 275.7 1210.5 272.1C1211.7 271.9 1212.5 271 1212.4 269.8 1212.2 268.6 1211.3 267.7 1210.1 267.9L1178.8 271 1188.6 259.1 1201.8 257.8C1203 257.7 1203.8 256.7 1203.6 255.5 1203.5 254.3 1202.5 253.5 1201.3 253.6L1192.3 254.5 1199.9 245.2C1201 244.5 1200.6 243.1 1199.6 242.2 1198.6 241.4 1197.4 241.6 1196.6 242.5L1189.6 251.1 1188.7 242.1C1188.5 240.9 1187.5 240.1 1186.3 240.2S1184.3 241.4 1184.4 242.6L1185.8 255.8 1176.1 267.7 1172.9 236.5C1172.8 235.3 1171.8 234.4 1170.6 234.6 1169.4 234.7 1168.6 235.7 1168.7 236.9L1172.3 272.3 1152.3 296.8 1141.2 267.3 1155.3 235.8C1155.7 234.6 1155 233.4 1154 232.6 1152.8 232.1 1151.6 232.8 1150.8 233.8L1138.2 262.1 1132.8 247.8 1138.5 235.4C1139 234.1 1138.3 233 1137.3 232.2 1136 231.7 1134.9 232.4 1134.4 233.1L1130.7 241.6 1126.6 231.1C1126.2 230.3 1124.9 229.2 1123.7 229.9 1122.6 230.6 1121.8 231.6 1122.5 232.8L1126.6 243.3 1118 239.6C1116.8 239.1 1115.6 239.8 1115.1 240.5 1114.9 241.4 1115 242.6 1115.7 243.2 1115.7 243.2 1116 243.4 1116 243.4L1128.4 249.1 1133.8 263.5 1105.5 250.9C1104.3 250.4 1103.1 251.1 1102.6 251.8 1102.4 252.7 1102.5 253.9 1103.2 254.4 1103.2 254.4 1103.5 254.7 1103.5 254.7L1135.9 269 1147.1 298.5 1115.9 293.5 1095.4 264.6C1094.7 263.5 1093.2 263.3 1092.3 264.3 1091.2 265 1091.1 266.6 1092 267.4L1110.1 292.5 1095 290.1 1086.9 279.1C1086.1 278 1084.6 277.8 1083.8 278.8 1082.7 279.6 1082.5 281.1 1083.5 281.9L1088.8 289.5 1077.7 287.6C1076.8 287.4 1075.4 288.5 1075.2 289.4 1075 290.3 1075.4 291.2 1076 291.7 1076.3 292 1076.7 292.3 1077.3 292.2L1088.4 294.1 1080.7 299.5C1079.6 300.2 1079.4 301.7 1080.4 302.5 1080.4 302.5 1080.8 302.8 1080.8 302.8 1081.4 303.3 1082.6 303.2 1083.5 302.8L1094.5 294.7 1109.6 297.1 1084.4 315.2C1083.3 315.9 1083.2 317.4 1084.2 318.2 1084.2 318.2 1084.5 318.5 1084.5 318.5 1085.1 319 1086.3 318.9 1087.2 318.5L1116.1 298 1147.2 303 1127.2 327.5 1091.8 331.1C1090.6 331.2 1089.8 332.2 1089.9 333.4 1090.1 334.6 1091 335.4 1092.2 335.3L1123.2 332.5 1113.5 344.4 1100.3 345.7C1099.1 345.8 1098.3 346.8 1098.4 348S1099.5 350 1100.7 349.9L1109.7 349 1102.7 357.6C1101.9 358.6 1102 359.8 1103 360.6 1104 361.4 1105.2 361.3 1106 360.3L1113 351.7 1113.9 360.7C1114 361.3 1114 361.9 1114.7 362.4S1116 362.9 1116.6 362.8C1117.8 362.7 1118.6 361.7 1118.5 360.5L1117.1 347.3 1126.8 335.4 1130 366.6C1130.1 367.2 1130.1 367.8 1130.8 368.4 1131.1 368.7 1132 368.9 1132.6 368.8 1133.8 368.7 1134.6 367.7 1134.5 366.5L1130.9 331.1 1150.9 306.6 1162.1 336.1 1147.8 368.5C1147.6 369.4 1147.7 370.6 1148.3 371.2 1148.3 371.2 1148.7 371.4 1148.7 371.4 1149.9 371.9 1151.1 371.2 1151.6 370.5L1164.2 342.3 1169.6 356.6 1163.9 369C1163.7 369.9 1163.8 371.1 1164.5 371.6 1164.5 371.6 1164.8 371.9 1164.8 371.9 1166.1 372.4 1167.2 371.7 1167.7 371L1171.4 362.4 1175.5 373C1175.8 373.2 1175.9 373.8 1176.2 374.1 1176.9 374.6 1177.8 374.8 1178.7 374.4 1179.8 373.7 1180.6 372.7 1179.9 371.6L1175.8 361.1 1184.4 364.8C1185.6 365.3 1186.8 364.5 1187.3 363.9 1187.8 362.6 1187.1 361.5 1186.4 360.9L1174 355.2 1168.6 340.9 1196.9 353.5C1198.2 354 1199.3 353.3 1199.8 352.6 1199.6 350.8 1199.2 349.3 1197.9 348.8Z" fill="rgba(51, 121, 194, 0.58)"></path><path d="M161 1090L167.6 1055.4 175.5 1049.7 195.2 1059.1 196.1 1069 172.9 1095.7C172.7 1096.1 172.7 1096.1 172.5 1096.5 172.2 1097.3 172.2 1098.2 173.2 1099.2 174.3 1099.7 175.3 1099.7 176.2 1098.7L196.4 1075.3 197.6 1090.5 188.9 1101C188.9 1101 188.7 1101.4 188.7 1101.4 188.3 1102.1 188.3 1103.1 189.3 1104 189.9 1104.8 191.4 1104.6 192.3 1103.6L198.3 1097 199.1 1108.3C199.1 1109.2 200.1 1110.1 201.4 1110.3S203.5 1108.9 203.7 1107.6L202.7 1096.7 209.5 1102.3C210.5 1103.3 212 1103.1 212.9 1102.1 213.3 1101.3 213.5 1100 212.5 1099L202 1090.3 201 1074.6 224.4 1094.8C225.4 1095.8 226.9 1095.5 227.7 1094.9 228.2 1093.8 228.4 1092.5 227.4 1091.5L200.5 1068.7 199.7 1058.4 217.3 1046.5 226.5 1050.9 238.5 1084.1C238.9 1085.2 240.1 1085.8 241.2 1085.4S242.9 1083.8 242.5 1082.7L231.9 1053.5 246.1 1060.3 250.6 1072.8C251 1073.9 252.1 1074.5 253.6 1074.3S255.3 1072.7 254.9 1071.6L251.5 1062.8 261.9 1067.8C263.1 1068.4 264.4 1067.6 264.9 1066.4 265.5 1065.3 265.1 1064.1 263.9 1063.6L253.5 1058.6 262.1 1055.6C263.6 1055.4 264.2 1054.2 263.4 1052.9 263 1051.8 261.8 1051.2 260.7 1051.6L248.2 1056 233.9 1049.2 263.3 1039.2C264.4 1038.7 265.2 1037.2 264.8 1036.1S263.2 1034.4 262.1 1034.8L228.5 1046.7 219.3 1042.2 217.7 1020.7 226 1015.2 260.7 1021.8C262 1022 263 1021 263.5 1019.9 263.7 1018.5 262.7 1017.6 261.6 1017L231.1 1011.5 243.8 1002.9 257.2 1005.5C258.5 1005.7 259.4 1004.7 260 1003.5 260 1002.6 259.2 1001.2 257.8 1001.1L249.2 999.3 258.5 992.9C259.2 992.3 259.4 990.9 259 989.8 258 988.9 256.7 988.7 255.9 989.3L246.7 995.7 248.2 986.6C248.2 985.6 247.4 984.3 246.5 984.3 245.3 983.8 244.6 984.3 244 985.5 244 985.5 243.8 985.9 243.8 985.9L241.2 999.3 228.6 1007.9 234.1 977.5C234.3 976.1 233.9 975 232.6 974.8 231.2 974.7 230.5 975.2 230.1 976 229.9 976.4 229.9 976.4 229.9 976.4L223.5 1011.6 215.2 1017.1 195.6 1007.7 195 998 218 970.7C218.7 970.1 218.5 968.6 217.9 967.8 217 966.9 215.4 967.1 214.5 968.1L194.3 991.5 193.1 976.3 201.9 965.8C202.8 964.9 203 963.5 201.8 963 200.8 962 199.3 962.3 198.6 962.8L192.8 970 192 958.8C191.6 957.6 190.6 956.7 189.3 956.5 188.7 956.7 188 957.3 187.6 958.1 187.4 958.5 187.4 958.5 187.6 959L188.4 970.3 181.2 964.5C180.3 963.6 179.1 964 178.4 964.5 178.2 964.9 178.2 964.9 178 965.3 177.6 966.1 177.7 967 178.2 967.8L188.7 976.6 189.9 991.8 166.5 971.6C165.3 971.1 164 970.9 163.4 972.1 162.9 972.3 162.9 972.3 162.7 972.6 162.3 973.4 162.7 974.6 163.3 975.3L190.6 998.3 191.2 1008 173.5 1020.4 164.6 1016.1 152.7 982.6C152.3 981.4 150.8 980.7 149.7 981.1S147.8 983 148.2 984.2L158.8 1013.4 145 1006.7 140.2 994C139.8 992.9 138.6 992.4 137.5 992.8 136.3 993.2 135.8 994.3 136.2 995.5L139.2 1004 128.8 999C128 998.7 126.5 998.9 126 1000 125.4 1001.2 126 1002.9 126.8 1003.3L137.2 1008.2 128.6 1011.2C128.1 1011.4 127.5 1011.6 127.3 1012 127 1012.8 127.2 1013.4 127.4 1013.9 127.8 1015.1 128.9 1015.6 130 1015.2L142.9 1011 156.8 1017.6 127.4 1027.7C126.8 1027.9 126.7 1028.3 126.3 1029 126.1 1029.4 125.9 1029.8 126.1 1030.4 126.5 1031.5 128.1 1032.2 129.2 1031.8L162.6 1020.4 171.4 1024.6 173.2 1045.7 165.1 1051.8 130 1045C129.1 1045 127.9 1045.4 127.6 1046.2 127.4 1046.6 127.4 1046.6 127.8 1046.8 127.2 1047.9 128 1049.2 129.3 1049.4L159.8 1055 147 1064 133.6 1061.3C132.6 1061.4 131.8 1061.9 131.5 1062.7 131.5 1062.7 131.3 1063.1 131.3 1063.1 130.7 1064.3 131.5 1065.6 132.9 1065.7L142.1 1067.3 132.8 1073.8C132.3 1074 132.1 1074.3 131.9 1074.7 131.5 1075.5 131.5 1076.5 131.9 1076.6 132.7 1078 134 1078.1 135.2 1077.7L144.4 1071.3 142.7 1079.9C142.5 1081.2 143.3 1082.5 144.6 1082.7 145.6 1082.7 146.9 1081.9 146.9 1081L149.5 1067.5 162.1 1058.9 156.6 1089.4C156.4 1090.7 157.4 1091.6 158.5 1092.2 159.5 1092.2 160.8 1091.4 161 1090ZM194.9 1053.7L179.9 1046.6 177.5 1045.5 177.3 1043 176.1 1026.8 176 1023.9 178.1 1022.6 191.5 1013.3 193.5 1012 195.8 1013.1 210.9 1020.3 213.2 1021.4 213.4 1023.8 214.7 1040 214.9 1042.5 212.6 1044.3 199.3 1053.5 197.2 1054.9 194.9 1053.7Z" fill="rgba(51, 121, 194, 0.58)"></path></g><defs><mask id="SvgjsMask1018"><rect width="1920" height="1080" fill="#ffffff"></rect></mask><filter id="SvgjsFilter1019"><feGaussianBlur stdDeviation="1"></feGaussianBlur></filter></defs></svg>